v -0.01875 0 0.01875
v 0.01875 0 0.01875
v 0.01875 0 -0.01875
v -0.01875 0 -0.01875
v -0.01875 1 -0.01875
v 0.01875 1 -0.01875
v 0.01875 1 0.01875
v -0.01875 1 0.01875
v -0.01875 0 0.01875
v -0.01875 1 0.01875
v 0.01875 1 0.01875
v 0.01875 0 0.01875
v 0.01875 0 0.01875
v 0.01875 1 0.01875
v 0.01875 1 -0.01875
v 0.01875 0 -0.01875
v 0.01875 0 -0.01875
v 0.01875 1 -0.01875
v -0.01875 1 -0.01875
v -0.01875 0 -0.01875
v -0.01875 0 -0.01875
v -0.01875 1 -0.01875
v -0.01875 1 0.01875
v -0.01875 0 0.01875
v 0.88125 0 0.01875
v 0.91875 0 0.01875
v 0.91875 0 -0.01875
v 0.88125 0 -0.01875
v 0.88125 1 -0.01875
v 0.91875 1 -0.01875
v 0.91875 1 0.01875
v 0.88125 1 0.01875
v 0.88125 0 0.01875
v 0.88125 1 0.01875
v 0.91875 1 0.01875
v 0.91875 0 0.01875
v 0.91875 0 0.01875
v 0.91875 1 0.01875
v 0.91875 1 -0.01875
v 0.91875 0 -0.01875
v 0.91875 0 -0.01875
v 0.91875 1 -0.01875
v 0.88125 1 -0.01875
v 0.88125 0 -0.01875
v 0.88125 0 -0.01875
v 0.88125 1 -0.01875
v 0.88125 1 0.01875
v 0.88125 0 0.01875
v 0.01875001 0.3775 0.01625
v 0.88125 0.3775 0.01625
v 0.88125 0.3775 -0.01625
v 0.01875001 0.3775 -0.01625
v 0.01875001 0.9975 -0.01625
v 0.88125 0.9975 -0.01625
v 0.88125 0.9975 0.01625
v 0.01875001 0.9975 0.01625
v 0.01875001 0.3775 0.01625
v 0.01875001 0.9975 0.01625
v 0.88125 0.9975 0.01625
v 0.88125 0.3775 0.01625
v 0.88125 0.3775 0.01625
v 0.88125 0.9975 0.01625
v 0.88125 0.9975 -0.01625
v 0.88125 0.3775 -0.01625
v 0.88125 0.3775 -0.01625
v 0.88125 0.9975 -0.01625
v 0.01875001 0.9975 -0.01625
v 0.01875001 0.3775 -0.01625
v 0.01875001 0.3775 -0.01625
v 0.01875001 0.9975 -0.01625
v 0.01875001 0.9975 0.01625
v 0.01875001 0.3775 0.01625
vn -0.01873026 -0.9996492 0.01873026
vn 0.01873026 -0.9996492 0.01873026
vn 0.01873026 -0.9996492 -0.01873026
vn -0.01873026 -0.9996492 -0.01873026
vn -0.01873026 0.9996492 -0.01873026
vn 0.01873026 0.9996492 -0.01873026
vn 0.01873026 0.9996492 0.01873026
vn -0.01873026 0.9996492 0.01873026
vn -0.02599701 -0.6932536 0.7202247
vn -0.02599701 0.6932536 0.7202247
vn 0.02599701 0.6932536 0.7202247
vn 0.02599701 -0.6932536 0.7202247
vn 0.7202247 -0.6932536 0.02599701
vn 0.7202247 0.6932536 0.02599701
vn 0.7202247 0.6932536 -0.02599701
vn 0.7202247 -0.6932536 -0.02599701
vn 0.02599701 -0.6932536 -0.7202247
vn 0.02599701 0.6932536 -0.7202247
vn -0.02599701 0.6932536 -0.7202247
vn -0.02599701 -0.6932536 -0.7202247
vn -0.7202247 -0.6932536 -0.02599701
vn -0.7202247 0.6932536 -0.02599701
vn -0.7202247 0.6932536 0.02599701
vn -0.7202247 -0.6932536 0.02599701
vn -0.01873021 -0.9996492 0.01873026
vn 0.01873033 -0.9996492 0.01873026
vn 0.01873033 -0.9996492 -0.01873026
vn -0.01873021 -0.9996492 -0.01873026
vn -0.01873021 0.9996492 -0.01873026
vn 0.01873033 0.9996492 -0.01873026
vn 0.01873033 0.9996492 0.01873026
vn -0.01873021 0.9996492 0.01873026
vn -0.02599694 -0.6932536 0.7202247
vn -0.02599694 0.6932536 0.7202247
vn 0.02599711 0.6932536 0.7202247
vn 0.02599711 -0.6932536 0.7202247
vn 0.7202248 -0.6932535 0.02599701
vn 0.7202248 0.6932535 0.02599701
vn 0.7202248 0.6932535 -0.02599701
vn 0.7202248 -0.6932535 -0.02599701
vn 0.02599711 -0.6932536 -0.7202247
vn 0.02599711 0.6932536 -0.7202247
vn -0.02599694 0.6932536 -0.7202247
vn -0.02599694 -0.6932536 -0.7202247
vn -0.7202247 -0.6932536 -0.02599701
vn -0.7202247 0.6932536 -0.02599701
vn -0.7202247 0.6932536 0.02599701
vn -0.7202247 -0.6932536 0.02599701
vn -0.456069 -0.8897785 0.01718521
vn 0.456069 -0.8897785 0.01718521
vn 0.456069 -0.8897785 -0.01718521
vn -0.456069 -0.8897785 -0.01718521
vn -0.456069 0.8897785 -0.01718521
vn 0.456069 0.8897785 -0.01718521
vn 0.456069 0.8897785 0.01718521
vn -0.456069 0.8897785 0.01718521
vn -0.5653093 -0.4063673 0.7178377
vn -0.5653093 0.4063673 0.7178377
vn 0.5653093 0.4063673 0.7178378
vn 0.5653093 -0.4063673 0.7178378
vn 0.9517354 -0.3064988 0.01606647
vn 0.9517354 0.3064988 0.01606647
vn 0.9517354 0.3064988 -0.01606647
vn 0.9517354 -0.3064988 -0.01606647
vn 0.5653093 -0.4063673 -0.7178378
vn 0.5653093 0.4063673 -0.7178378
vn -0.5653093 0.4063673 -0.7178377
vn -0.5653093 -0.4063673 -0.7178377
vn -0.9517354 -0.3064988 -0.01606647
vn -0.9517354 0.3064988 -0.01606647
vn -0.9517354 0.3064988 0.01606647
vn -0.9517354 -0.3064988 0.01606647
vt 0.8134373 0.25125
vt 0.9378124 0.25125
vt 0.5646876 0.25125
vt 0.6890627 0.25125
vt 0.6890627 0.4999126
vt 0.5646876 0.4999126
vt 0.9378124 0.4999126
vt 0.8134373 0.4999126
vt 0.8134373 0.25125
vt 0.8134373 0.4999126
vt 0.9378124 0.4999126
vt 0.9378124 0.25125
vt 0.9378124 0.25125
vt 0.9378124 0.4999126
vt 0.5646876 0.4999126
vt 0.5646876 0.25125
vt 0.5646876 0.25125
vt 0.5646876 0.4999126
vt 0.6890627 0.4999126
vt 0.6890627 0.25125
vt 0.6890627 0.25125
vt 0.6890627 0.4999126
vt 0.8134373 0.4999126
vt 0.8134373 0.25125
vt 0.8134373 0.25125
vt 0.9378124 0.25125
vt 0.5646875 0.25125
vt 0.6890627 0.25125
vt 0.6890627 0.4999126
vt 0.5646875 0.4999126
vt 0.9378124 0.4999126
vt 0.8134373 0.4999126
vt 0.8134373 0.25125
vt 0.8134373 0.4999126
vt 0.9378124 0.4999126
vt 0.9378124 0.25125
vt 0.9378124 0.25125
vt 0.9378124 0.4999126
vt 0.5646875 0.4999126
vt 0.5646875 0.25125
vt 0.5646875 0.25125
vt 0.5646875 0.4999126
vt 0.6890627 0.4999126
vt 0.6890627 0.25125
vt 0.6890627 0.25125
vt 0.6890627 0.4999126
vt 0.8134373 0.4999126
vt 0.8134373 0.25125
vt 0.2542318 0.25125
vt 0.497018 0.25125
vt 0.005482037 0.25125
vt 0.2482682 0.25125
vt 0.2482681 0.4554113
vt 0.005482162 0.4554113
vt 0.4970178 0.4554113
vt 0.254232 0.4554113
vt 0.2542318 0.25125
vt 0.254232 0.4554113
vt 0.4970178 0.4554113
vt 0.497018 0.25125
vt 0.497018 0.25125
vt 0.4970178 0.4554113
vt 0.005482162 0.4554113
vt 0.005482037 0.25125
vt 0.005482037 0.25125
vt 0.005482162 0.4554113
vt 0.2482681 0.4554113
vt 0.2482682 0.25125
vt 0.2482682 0.25125
vt 0.2482681 0.4554113
vt 0.254232 0.4554113
vt 0.2542318 0.25125
f 4/4/4 2/2/2 1/1/1
f 4/4/4 3/3/3 2/2/2
f 8/8/8 6/6/6 5/5/5
f 8/8/8 7/7/7 6/6/6
f 12/12/12 10/10/10 9/9/9
f 12/12/12 11/11/11 10/10/10
f 16/16/16 14/14/14 13/13/13
f 16/16/16 15/15/15 14/14/14
f 20/20/20 18/18/18 17/17/17
f 20/20/20 19/19/19 18/18/18
f 24/24/24 22/22/22 21/21/21
f 24/24/24 23/23/23 22/22/22
f 28/28/28 26/26/26 25/25/25
f 28/28/28 27/27/27 26/26/26
f 32/32/32 30/30/30 29/29/29
f 32/32/32 31/31/31 30/30/30
f 36/36/36 34/34/34 33/33/33
f 36/36/36 35/35/35 34/34/34
f 40/40/40 38/38/38 37/37/37
f 40/40/40 39/39/39 38/38/38
f 44/44/44 42/42/42 41/41/41
f 44/44/44 43/43/43 42/42/42
f 48/48/48 46/46/46 45/45/45
f 48/48/48 47/47/47 46/46/46
f 52/52/52 50/50/50 49/49/49
f 52/52/52 51/51/51 50/50/50
f 56/56/56 54/54/54 53/53/53
f 56/56/56 55/55/55 54/54/54
f 60/60/60 58/58/58 57/57/57
f 60/60/60 59/59/59 58/58/58
f 64/64/64 62/62/62 61/61/61
f 64/64/64 63/63/63 62/62/62
f 68/68/68 66/66/66 65/65/65
f 68/68/68 67/67/67 66/66/66
f 72/72/72 70/70/70 69/69/69
f 72/72/72 71/71/71 70/70/70
