v -0.025 0.008682389 0.04924037
v 0.025 0.008682389 0.04924037
v 0.025 -1.909211E-08 -1.862645E-08
v -0.025 -1.909211E-08 -1.862645E-08
v -0.02500001 1.477212 -0.2604723
v 0.02499998 1.477212 -0.2604723
v 0.02499998 1.485894 -0.2112319
v -0.02500001 1.485894 -0.2112319
v -0.025 0.008682389 0.04924037
v -0.02500001 1.485894 -0.2112319
v 0.02499998 1.485894 -0.2112319
v 0.025 0.008682389 0.04924037
v 0.025 0.008682389 0.04924037
v 0.02499998 1.485894 -0.2112319
v 0.02499998 1.477212 -0.2604723
v 0.025 -1.909211E-08 -1.862645E-08
v 0.025 -1.909211E-08 -1.862645E-08
v 0.02499998 1.477212 -0.2604723
v -0.02500001 1.477212 -0.2604723
v -0.025 -1.909211E-08 -1.862645E-08
v -0.025 -1.909211E-08 -1.862645E-08
v -0.02500001 1.477212 -0.2604723
v -0.02500001 1.485894 -0.2112319
v -0.025 0.008682389 0.04924037
v 1.475 0.008682389 0.04924037
v 1.525 0.008682389 0.04924037
v 1.525 -1.909211E-08 -1.862645E-08
v 1.475 -1.909211E-08 -1.862645E-08
v 1.475 1.477212 -0.2604723
v 1.525 1.477212 -0.2604723
v 1.525 1.485894 -0.2112319
v 1.475 1.485894 -0.2112319
v 1.475 0.008682389 0.04924037
v 1.475 1.485894 -0.2112319
v 1.525 1.485894 -0.2112319
v 1.525 0.008682389 0.04924037
v 1.525 0.008682389 0.04924037
v 1.525 1.485894 -0.2112319
v 1.525 1.477212 -0.2604723
v 1.525 -1.909211E-08 -1.862645E-08
v 1.525 -1.909211E-08 -1.862645E-08
v 1.525 1.477212 -0.2604723
v 1.475 1.477212 -0.2604723
v 1.475 -1.909211E-08 -1.862645E-08
v 1.475 -1.909211E-08 -1.862645E-08
v 1.475 1.477212 -0.2604723
v 1.475 1.485894 -0.2112319
v 1.475 0.008682389 0.04924037
v 0.01666665 1.476126 -0.2666273
v 0.01666665 1.483085 -0.2583346
v 0.01666665 1.472424 -0.2564549
v 0.01666665 1.476126 -0.2666273
v -0.01666668 1.476126 -0.2666273
v -0.01666668 1.483085 -0.2583346
v -0.01666668 1.472424 -0.2564549
v -0.01666668 1.476126 -0.2666273
v 0.01666665 1.476126 -0.2666273
v 0.01666665 1.483085 -0.2583346
v 0.01666665 1.472424 -0.2564549
v -0.01666668 1.476126 -0.2666273
v -0.01666668 1.483085 -0.2583346
v -0.01666668 1.472424 -0.2564549
v 1.516667 1.476126 -0.2666273
v 1.516667 1.483085 -0.2583346
v 1.516667 1.472424 -0.2564549
v 1.516667 1.476126 -0.2666273
v 1.483333 1.476126 -0.2666273
v 1.483333 1.483085 -0.2583346
v 1.483333 1.472424 -0.2564549
v 1.483333 1.476126 -0.2666273
v 1.516667 1.476126 -0.2666273
v 1.516667 1.483085 -0.2583346
v 1.516667 1.472424 -0.2564549
v 1.483333 1.476126 -0.2666273
v 1.483333 1.483085 -0.2583346
v 1.483333 1.472424 -0.2564549
v -0.03250001 0.708456 -0.1461893
v -0.02500001 0.708456 -0.1461893
v -0.02500001 0.708456 -0.3711893
v -0.03250001 0.708456 -0.3711893
v -0.03250001 0.723456 -0.3711893
v -0.02500001 0.723456 -0.3711893
v -0.02500001 0.723456 -0.1461893
v -0.03250001 0.723456 -0.1461893
v -0.03250001 0.708456 -0.1461893
v -0.03250001 0.723456 -0.1461893
v -0.02500001 0.723456 -0.1461893
v -0.02500001 0.708456 -0.1461893
v -0.02500001 0.708456 -0.1461893
v -0.02500001 0.723456 -0.1461893
v -0.02500001 0.723456 -0.3711893
v -0.02500001 0.708456 -0.3711893
v -0.02500001 0.708456 -0.3711893
v -0.02500001 0.723456 -0.3711893
v -0.03250001 0.723456 -0.3711893
v -0.03250001 0.708456 -0.3711893
v -0.03250001 0.708456 -0.3711893
v -0.03250001 0.723456 -0.3711893
v -0.03250001 0.723456 -0.1461893
v -0.03250001 0.708456 -0.1461893
v 1.525 0.708456 -0.1461893
v 1.5325 0.708456 -0.1461893
v 1.5325 0.708456 -0.3711893
v 1.525 0.708456 -0.3711893
v 1.525 0.723456 -0.3711893
v 1.5325 0.723456 -0.3711893
v 1.5325 0.723456 -0.1461893
v 1.525 0.723456 -0.1461893
v 1.525 0.708456 -0.1461893
v 1.525 0.723456 -0.1461893
v 1.5325 0.723456 -0.1461893
v 1.5325 0.708456 -0.1461893
v 1.5325 0.708456 -0.1461893
v 1.5325 0.723456 -0.1461893
v 1.5325 0.723456 -0.3711893
v 1.5325 0.708456 -0.3711893
v 1.5325 0.708456 -0.3711893
v 1.5325 0.723456 -0.3711893
v 1.525 0.723456 -0.3711893
v 1.525 0.708456 -0.3711893
v 1.525 0.708456 -0.3711893
v 1.525 0.723456 -0.3711893
v 1.525 0.723456 -0.1461893
v 1.525 0.708456 -0.1461893
v 0.02500003 1.24172 -0.1707159
v 1.475 1.24172 -0.1707159
v 1.475 1.233906 -0.2150323
v 0.02500003 1.233906 -0.2150323
v 0.02500002 1.475184 -0.2575761
v 1.475 1.475184 -0.2575761
v 1.475 1.482998 -0.2132597
v 0.02500002 1.482998 -0.2132597
v 0.02500003 1.24172 -0.1707159
v 0.02500002 1.482998 -0.2132597
v 1.475 1.482998 -0.2132597
v 1.475 1.24172 -0.1707159
v 1.475 1.24172 -0.1707159
v 1.475 1.482998 -0.2132597
v 1.475 1.475184 -0.2575761
v 1.475 1.233906 -0.2150323
v 1.475 1.233906 -0.2150323
v 1.475 1.475184 -0.2575761
v 0.02500002 1.475184 -0.2575761
v 0.02500003 1.233906 -0.2150323
v 0.02500003 1.233906 -0.2150323
v 0.02500002 1.475184 -0.2575761
v 0.02500002 1.482998 -0.2132597
v 0.02500003 1.24172 -0.1707159
v -0.025 -1.909211E-08 -0.5217391
v 0.025 -1.909211E-08 -0.5217391
v 0.025 0.008682389 -0.5709795
v -0.025 0.008682389 -0.5709795
v -0.02500001 1.485894 -0.3105073
v 0.02499998 1.485894 -0.3105073
v 0.02499998 1.477212 -0.2612669
v -0.02500001 1.477212 -0.2612669
v -0.025 -1.909211E-08 -0.5217391
v -0.02500001 1.477212 -0.2612669
v 0.02499998 1.477212 -0.2612669
v 0.025 -1.909211E-08 -0.5217391
v 0.025 -1.909211E-08 -0.5217391
v 0.02499998 1.477212 -0.2612669
v 0.02499998 1.485894 -0.3105073
v 0.025 0.008682389 -0.5709795
v 0.025 0.008682389 -0.5709795
v 0.02499998 1.485894 -0.3105073
v -0.02500001 1.485894 -0.3105073
v -0.025 0.008682389 -0.5709795
v -0.025 0.008682389 -0.5709795
v -0.02500001 1.485894 -0.3105073
v -0.02500001 1.477212 -0.2612669
v -0.025 -1.909211E-08 -0.5217391
v 1.475 -1.909211E-08 -0.5217391
v 1.525 -1.909211E-08 -0.5217391
v 1.525 0.008682389 -0.5709795
v 1.475 0.008682389 -0.5709795
v 1.475 1.485894 -0.3105073
v 1.525 1.485894 -0.3105073
v 1.525 1.477212 -0.2612669
v 1.475 1.477212 -0.2612669
v 1.475 -1.909211E-08 -0.5217391
v 1.475 1.477212 -0.2612669
v 1.525 1.477212 -0.2612669
v 1.525 -1.909211E-08 -0.5217391
v 1.525 -1.909211E-08 -0.5217391
v 1.525 1.477212 -0.2612669
v 1.525 1.485894 -0.3105073
v 1.525 0.008682389 -0.5709795
v 1.525 0.008682389 -0.5709795
v 1.525 1.485894 -0.3105073
v 1.475 1.485894 -0.3105073
v 1.475 0.008682389 -0.5709795
v 1.475 0.008682389 -0.5709795
v 1.475 1.485894 -0.3105073
v 1.475 1.477212 -0.2612669
v 1.475 -1.909211E-08 -0.5217391
v 0.02500003 1.233906 -0.3067069
v 1.475 1.233906 -0.3067069
v 1.475 1.24172 -0.3510232
v 0.02500003 1.24172 -0.3510232
v 0.02500002 1.482998 -0.3084794
v 1.475 1.482998 -0.3084794
v 1.475 1.475184 -0.2641631
v 0.02500002 1.475184 -0.2641631
v 0.02500003 1.233906 -0.3067069
v 0.02500002 1.475184 -0.2641631
v 1.475 1.475184 -0.2641631
v 1.475 1.233906 -0.3067069
v 1.475 1.233906 -0.3067069
v 1.475 1.475184 -0.2641631
v 1.475 1.482998 -0.3084794
v 1.475 1.24172 -0.3510232
v 1.475 1.24172 -0.3510232
v 1.475 1.482998 -0.3084794
v 0.02500002 1.482998 -0.3084794
v 0.02500003 1.24172 -0.3510232
v 0.02500003 1.24172 -0.3510232
v 0.02500002 1.482998 -0.3084794
v 0.02500002 1.475184 -0.2641631
v 0.02500003 1.233906 -0.3067069
vn -0.01665279 -0.9816428 0.1899998
vn 0.01665279 -0.9816428 0.1899998
vn 0.0166528 -0.9874263 0.1572002
vn -0.0166528 -0.9874263 0.1572002
vn -0.0166528 0.981643 -0.1899994
vn 0.0166528 0.981643 -0.1899994
vn 0.0166528 0.9874265 -0.1571998
vn -0.0166528 0.9874265 -0.1571998
vn -0.02316164 -0.5594776 0.8285218
vn -0.02316164 0.8091081 0.5872032
vn 0.02316164 0.8091081 0.5872032
vn 0.02316164 -0.5594776 0.8285218
vn 0.7187825 -0.6802709 0.143469
vn 0.7187824 0.6883148 -0.09784953
vn 0.7187825 0.6802709 -0.1434691
vn 0.7187824 -0.6883148 0.09784953
vn 0.02316164 -0.8091081 -0.5872032
vn 0.02316164 0.5594776 -0.8285218
vn -0.02316164 0.5594776 -0.8285218
vn -0.02316164 -0.8091081 -0.5872032
vn -0.7187824 -0.6883148 0.09784953
vn -0.7187825 0.6802709 -0.1434691
vn -0.7187824 0.6883148 -0.09784953
vn -0.7187825 -0.6802709 0.143469
vn -0.01665278 -0.9816428 0.1899998
vn 0.01665278 -0.9816428 0.1899998
vn 0.01665278 -0.9874263 0.1572002
vn -0.01665278 -0.9874263 0.1572002
vn -0.01665278 0.9816429 -0.1899994
vn 0.01665278 0.9816429 -0.1899994
vn 0.01665278 0.9874264 -0.1571998
vn -0.01665278 0.9874264 -0.1571998
vn -0.02316161 -0.5594775 0.8285218
vn -0.02316162 0.809108 0.5872032
vn 0.02316162 0.809108 0.5872032
vn 0.02316161 -0.5594775 0.8285218
vn 0.7187825 -0.6802709 0.143469
vn 0.7187824 0.6883148 -0.09784953
vn 0.7187825 0.6802709 -0.1434691
vn 0.7187824 -0.6883148 0.09784953
vn 0.02316162 -0.809108 -0.5872032
vn 0.02316161 0.5594775 -0.8285218
vn -0.02316161 0.5594775 -0.8285218
vn -0.02316162 -0.809108 -0.5872032
vn -0.7187824 -0.6883148 0.09784953
vn -0.7187825 0.6802709 -0.1434691
vn -0.7187824 0.6883148 -0.09784953
vn -0.7187825 -0.6802709 0.143469
vn 0 -0.1736453 -0.9848083
vn 0 0.9396912 0.3420242
vn 0 -0.7660452 0.6427868
vn 0 -0.1736453 -0.9848083
vn 0 -0.1736453 -0.9848083
vn 0 0.9396912 0.3420242
vn 0 -0.7660452 0.6427868
vn 0 -0.1736453 -0.9848083
vn 1 0 0
vn 1 0 0
vn 1 0 0
vn -1 0 0
vn -1 0 0
vn -1 0 0
vn 0 -0.1736453 -0.9848083
vn 0 0.9396911 0.3420242
vn 0 -0.7660452 0.6427868
vn 0 -0.1736453 -0.9848083
vn 0 -0.1736453 -0.9848083
vn 0 0.9396911 0.3420242
vn 0 -0.7660452 0.6427868
vn 0 -0.1736453 -0.9848083
vn 1 0 0
vn 1 0 0
vn 1 0 0
vn -1 0 0
vn -1 0 0
vn -1 0 0
vn -0.02276061 -0.7302334 0.6828185
vn 0.02276062 -0.7302334 0.6828185
vn 0.02276062 -0.7302334 -0.6828185
vn -0.02276061 -0.7302334 -0.6828185
vn -0.0227606 0.7302338 -0.6828182
vn 0.02276061 0.7302338 -0.6828182
vn 0.02276061 0.7302338 0.6828182
vn -0.0227606 0.7302338 0.6828182
vn -0.01663206 -0.03326384 0.9993082
vn -0.01663206 0.03326437 0.9993082
vn 0.01663207 0.03326437 0.9993082
vn 0.01663207 -0.03326384 0.9993082
vn 0.7187632 -0.04624726 0.6937151
vn 0.7187633 0.046248 0.6937151
vn 0.7187632 0.046248 -0.693715
vn 0.7187632 -0.04624727 -0.6937151
vn 0.01663207 -0.03326385 -0.9993082
vn 0.01663207 0.03326438 -0.9993082
vn -0.01663206 0.03326438 -0.9993082
vn -0.01663206 -0.03326385 -0.9993082
vn -0.7187632 -0.04624727 -0.6937151
vn -0.7187632 0.046248 -0.693715
vn -0.7187633 0.046248 0.6937151
vn -0.7187632 -0.04624726 0.6937151
vn -0.02276114 -0.7302334 0.6828185
vn 0.02275969 -0.7302334 0.6828186
vn 0.02275969 -0.7302334 -0.6828185
vn -0.02276114 -0.7302334 -0.6828185
vn -0.02276113 0.7302338 -0.6828181
vn 0.02275968 0.7302338 -0.6828182
vn 0.02275968 0.7302338 0.6828182
vn -0.02276113 0.7302338 0.6828182
vn -0.01663245 -0.03326384 0.9993082
vn -0.01663245 0.03326437 0.9993082
vn 0.01663139 0.03326437 0.9993082
vn 0.01663139 -0.03326385 0.9993082
vn 0.7187627 -0.0462473 0.6937156
vn 0.7187628 0.04624803 0.6937156
vn 0.7187627 0.04624804 -0.6937156
vn 0.7187628 -0.0462473 -0.6937156
vn 0.01663139 -0.03326385 -0.9993082
vn 0.01663139 0.03326438 -0.9993082
vn -0.01663245 0.03326438 -0.9993082
vn -0.01663245 -0.03326385 -0.9993082
vn -0.7187634 -0.04624725 -0.6937148
vn -0.7187635 0.04624799 -0.6937148
vn -0.7187635 0.04624798 0.6937148
vn -0.7187635 -0.04624725 0.6937149
vn -0.645241 -0.7486367 0.1523385
vn 0.645241 -0.7486368 0.1523385
vn 0.645241 -0.7555913 0.1128975
vn -0.645241 -0.7555913 0.1128975
vn -0.645241 0.7486367 -0.1523385
vn 0.645241 0.7486368 -0.1523385
vn 0.645241 0.7555913 -0.1128975
vn -0.645241 0.7555913 -0.1128975
vn -0.6864786 0.01042239 0.7270753
vn -0.6864786 0.2388805 0.686792
vn 0.6864786 0.2388805 0.686792
vn 0.6864786 0.01042239 0.7270753
vn 0.9963841 -0.07963041 0.02962648
vn 0.9963841 0.08496097 0.0006045868
vn 0.9963841 0.07963041 -0.02962648
vn 0.9963841 -0.08496097 -0.0006045868
vn 0.6864786 -0.2388805 -0.686792
vn 0.6864786 -0.01042239 -0.7270753
vn -0.6864786 -0.01042239 -0.7270753
vn -0.6864786 -0.2388805 -0.686792
vn -0.9963841 -0.08496096 -0.0006045867
vn -0.9963841 0.07963041 -0.02962648
vn -0.9963841 0.08496096 0.0006045867
vn -0.9963841 -0.07963041 0.02962648
vn -0.0166528 -0.9874264 -0.1572003
vn 0.0166528 -0.9874264 -0.1572003
vn 0.0166528 -0.9816429 -0.1899998
vn -0.0166528 -0.9816429 -0.1899998
vn -0.0166528 0.9874264 0.1571999
vn 0.0166528 0.9874264 0.1571999
vn 0.01665279 0.9816429 0.1899995
vn -0.01665279 0.9816429 0.1899995
vn -0.02316164 -0.809108 0.5872032
vn -0.02316164 0.5594776 0.8285218
vn 0.02316164 0.5594776 0.8285218
vn 0.02316164 -0.809108 0.5872032
vn 0.7187824 -0.6883148 -0.0978495
vn 0.7187825 0.6802709 0.1434691
vn 0.7187824 0.6883148 0.09784956
vn 0.7187824 -0.6802709 -0.143469
vn 0.02316164 -0.5594776 -0.8285217
vn 0.02316164 0.8091081 -0.5872032
vn -0.02316164 0.8091081 -0.5872032
vn -0.02316164 -0.5594776 -0.8285217
vn -0.7187824 -0.6802709 -0.143469
vn -0.7187824 0.6883148 0.09784956
vn -0.7187825 0.6802709 0.1434691
vn -0.7187824 -0.6883148 -0.0978495
vn -0.01665278 -0.9874264 -0.1572003
vn 0.01665278 -0.9874264 -0.1572003
vn 0.01665278 -0.9816428 -0.1899998
vn -0.01665278 -0.9816428 -0.1899998
vn -0.01665278 0.9874265 0.1571999
vn 0.01665278 0.9874265 0.1571999
vn 0.01665278 0.981643 0.1899995
vn -0.01665278 0.981643 0.1899995
vn -0.02316162 -0.809108 0.5872033
vn -0.02316161 0.5594775 0.8285218
vn 0.02316161 0.5594775 0.8285218
vn 0.02316162 -0.809108 0.5872033
vn 0.7187824 -0.6883148 -0.0978495
vn 0.7187825 0.6802709 0.1434691
vn 0.7187824 0.6883148 0.09784956
vn 0.7187824 -0.6802709 -0.143469
vn 0.02316162 -0.5594776 -0.8285217
vn 0.02316162 0.8091081 -0.5872032
vn -0.02316162 0.8091081 -0.5872032
vn -0.02316162 -0.5594776 -0.8285217
vn -0.7187824 -0.6802709 -0.143469
vn -0.7187824 0.6883148 0.09784956
vn -0.7187825 0.6802709 0.1434691
vn -0.7187824 -0.6883148 -0.0978495
vn -0.645241 -0.7555913 -0.1128975
vn 0.645241 -0.7555913 -0.1128975
vn 0.645241 -0.7486368 -0.1523385
vn -0.645241 -0.7486367 -0.1523385
vn -0.645241 0.7555913 0.1128975
vn 0.645241 0.7555913 0.1128975
vn 0.645241 0.7486368 0.1523385
vn -0.645241 0.7486367 0.1523385
vn -0.6864786 -0.2388805 0.686792
vn -0.6864786 -0.01042239 0.7270753
vn 0.6864786 -0.01042239 0.7270753
vn 0.6864786 -0.2388805 0.686792
vn 0.9963841 -0.08496097 0.0006045563
vn 0.9963841 0.07963041 0.02962645
vn 0.9963841 0.08496097 -0.0006046173
vn 0.9963841 -0.07963041 -0.02962651
vn 0.6864786 0.01042239 -0.7270754
vn 0.6864786 0.2388805 -0.686792
vn -0.6864786 0.2388805 -0.686792
vn -0.6864786 0.01042239 -0.7270753
vn -0.9963841 -0.07963041 -0.02962651
vn -0.9963841 0.08496096 -0.0006046172
vn -0.9963841 0.07963041 0.02962645
vn -0.9963841 -0.08496096 0.0006045562
vt 0.8755344 0.1882278
vt 0.9590488 0.1882278
vt 0.7101179 0.1476055
vt 0.7936323 0.1476055
vt 0.7564806 0.3302965
vt 0.7472696 0.3302965
vt 0.7463146 0.3312537
vt 0.7574356 0.3312537
vt 0.8755344 0.1882278
vt 0.7574356 0.3312537
vt 0.7463146 0.3312537
vt 0.9590488 0.1882278
vt 0.9590488 0.1882278
vt 0.7463146 0.3312537
vt 0.7472696 0.3302965
vt 0.7101179 0.1476055
vt 0.7101179 0.1476055
vt 0.7472696 0.3302965
vt 0.7564806 0.3302965
vt 0.7936323 0.1476055
vt 0.7936323 0.1476055
vt 0.7564806 0.3302965
vt 0.7574356 0.3312537
vt 0.8755344 0.1882278
vt 0.8755344 0.1882278
vt 0.9590487 0.1882278
vt 0.7101179 0.1476055
vt 0.7936323 0.1476055
vt 0.7564806 0.3302965
vt 0.7472696 0.3302965
vt 0.7463146 0.3312537
vt 0.7574356 0.3312537
vt 0.8755344 0.1882278
vt 0.7574356 0.3312537
vt 0.7463146 0.3312537
vt 0.9590487 0.1882278
vt 0.9590487 0.1882278
vt 0.7463146 0.3312537
vt 0.7472696 0.3302965
vt 0.7101179 0.1476055
vt 0.7101179 0.1476055
vt 0.7472696 0.3302965
vt 0.7564806 0.3302965
vt 0.7936323 0.1476055
vt 0.7936323 0.1476055
vt 0.7564806 0.3302965
vt 0.7574356 0.3312537
vt 0.8755344 0.1882278
vt 0.0025 0.50125
vt 0.1127778 0.50125
vt 0.2230556 0.50125
vt 0.3333333 0.50125
vt 0.0025 0.6666667
vt 0.1127778 0.6666667
vt 0.2230556 0.6666667
vt 0.3333333 0.6666667
vt 0.1679167 0.4185417
vt 0.04385416 0.4901692
vt 0.04385417 0.3469141
vt 0.3333333 0.4185417
vt 0.2092708 0.4901692
vt 0.2092708 0.3469141
vt 0.0025 0.50125
vt 0.1127778 0.50125
vt 0.2230556 0.50125
vt 0.3333333 0.50125
vt 0.0025 0.6666667
vt 0.1127778 0.6666667
vt 0.2230556 0.6666667
vt 0.3333333 0.6666667
vt 0.1679167 0.4185417
vt 0.04385416 0.4901692
vt 0.04385417 0.3469141
vt 0.3333333 0.4185417
vt 0.2092708 0.4901692
vt 0.2092708 0.3469141
vt 0.5822038 0.50125
vt 0.5857127 0.50125
vt 0.4167873 0.50125
vt 0.4202962 0.50125
vt 0.4202962 0.5231001
vt 0.4167873 0.5231001
vt 0.5857127 0.5231001
vt 0.5822038 0.5231001
vt 0.5822038 0.50125
vt 0.5822038 0.5231001
vt 0.5857127 0.5231001
vt 0.5857127 0.50125
vt 0.5857127 0.50125
vt 0.5857127 0.5231001
vt 0.4167873 0.5231001
vt 0.4167873 0.50125
vt 0.4167873 0.50125
vt 0.4167873 0.5231001
vt 0.4202962 0.5231001
vt 0.4202962 0.50125
vt 0.4202962 0.50125
vt 0.4202962 0.5231001
vt 0.5822038 0.5231001
vt 0.5822038 0.50125
vt 0.5822039 0.50125
vt 0.5857127 0.50125
vt 0.4167873 0.50125
vt 0.4202962 0.50125
vt 0.4202962 0.5231001
vt 0.4167873 0.5231001
vt 0.5857127 0.5231001
vt 0.5822039 0.5231001
vt 0.5822039 0.50125
vt 0.5822039 0.5231001
vt 0.5857127 0.5231001
vt 0.5857127 0.50125
vt 0.5857127 0.50125
vt 0.5857127 0.5231001
vt 0.4167873 0.5231001
vt 0.4167873 0.50125
vt 0.4167873 0.50125
vt 0.4167873 0.5231001
vt 0.4202962 0.5231001
vt 0.4202962 0.50125
vt 0.4202962 0.50125
vt 0.4202962 0.5231001
vt 0.5822039 0.5231001
vt 0.5822039 0.50125
vt 0.1695252 0.1688077
vt 0.3317246 0.1688077
vt 0.004108728 0.1670257
vt 0.1663082 0.1670257
vt 0.1632302 0.2192028
vt 0.007186601 0.2192028
vt 0.003980209 0.2208911
vt 0.1664365 0.2208911
vt 0.1695252 0.1688077
vt 0.1664365 0.2208911
vt 0.003980209 0.2208911
vt 0.3317246 0.1688077
vt 0.3317246 0.1688077
vt 0.003980209 0.2208911
vt 0.007186601 0.2192028
vt 0.004108728 0.1670257
vt 0.004108728 0.1670257
vt 0.007186601 0.2192028
vt 0.1632302 0.2192028
vt 0.1663082 0.1670257
vt 0.1663082 0.1670257
vt 0.1632302 0.2192028
vt 0.1664365 0.2208911
vt 0.1695252 0.1688077
vt 0.8755344 0.4809389
vt 0.9590489 0.4809389
vt 0.7101178 0.5215611
vt 0.7936323 0.5215611
vt 0.9117311 0.664587
vt 0.922852 0.664587
vt 0.9218971 0.6636298
vt 0.9126861 0.6636298
vt 0.8755344 0.4809389
vt 0.9126861 0.6636298
vt 0.9218971 0.6636298
vt 0.9590489 0.4809389
vt 0.9590489 0.4809389
vt 0.9218971 0.6636298
vt 0.922852 0.664587
vt 0.7101178 0.5215611
vt 0.7101178 0.5215611
vt 0.922852 0.664587
vt 0.9117311 0.664587
vt 0.7936323 0.5215611
vt 0.7936323 0.5215611
vt 0.9117311 0.664587
vt 0.9126861 0.6636298
vt 0.8755344 0.4809389
vt 0.8755344 0.4809389
vt 0.9590488 0.4809389
vt 0.7101179 0.5215611
vt 0.7936323 0.5215611
vt 0.9117311 0.664587
vt 0.922852 0.664587
vt 0.9218971 0.6636298
vt 0.9126861 0.6636298
vt 0.8755344 0.4809389
vt 0.9126861 0.6636298
vt 0.9218971 0.6636298
vt 0.9590488 0.4809389
vt 0.9590488 0.4809389
vt 0.9218971 0.6636298
vt 0.922852 0.664587
vt 0.7101179 0.5215611
vt 0.7101179 0.5215611
vt 0.922852 0.664587
vt 0.9117311 0.664587
vt 0.7936323 0.5215611
vt 0.7936323 0.5215611
vt 0.9117311 0.664587
vt 0.9126861 0.6636298
vt 0.8755344 0.4809389
vt 0.5028585 0.1670257
vt 0.665058 0.1670257
vt 0.3374421 0.1688077
vt 0.4996415 0.1688077
vt 0.5027302 0.2208911
vt 0.6651865 0.2208911
vt 0.6619801 0.2192028
vt 0.5059365 0.2192028
vt 0.5028585 0.1670257
vt 0.5059365 0.2192028
vt 0.6619801 0.2192028
vt 0.665058 0.1670257
vt 0.665058 0.1670257
vt 0.6619801 0.2192028
vt 0.6651865 0.2208911
vt 0.3374421 0.1688077
vt 0.3374421 0.1688077
vt 0.6651865 0.2208911
vt 0.5027302 0.2208911
vt 0.4996415 0.1688077
vt 0.4996415 0.1688077
vt 0.5027302 0.2208911
vt 0.5059365 0.2192028
vt 0.5028585 0.1670257
f 4/4/4 2/2/2 1/1/1
f 4/4/4 3/3/3 2/2/2
f 8/8/8 6/6/6 5/5/5
f 8/8/8 7/7/7 6/6/6
f 12/12/12 10/10/10 9/9/9
f 12/12/12 11/11/11 10/10/10
f 16/16/16 14/14/14 13/13/13
f 16/16/16 15/15/15 14/14/14
f 20/20/20 18/18/18 17/17/17
f 20/20/20 19/19/19 18/18/18
f 24/24/24 22/22/22 21/21/21
f 24/24/24 23/23/23 22/22/22
f 28/28/28 26/26/26 25/25/25
f 28/28/28 27/27/27 26/26/26
f 32/32/32 30/30/30 29/29/29
f 32/32/32 31/31/31 30/30/30
f 36/36/36 34/34/34 33/33/33
f 36/36/36 35/35/35 34/34/34
f 40/40/40 38/38/38 37/37/37
f 40/40/40 39/39/39 38/38/38
f 44/44/44 42/42/42 41/41/41
f 44/44/44 43/43/43 42/42/42
f 48/48/48 46/46/46 45/45/45
f 48/48/48 47/47/47 46/46/46
f 53/53/53 50/50/50 49/49/49
f 53/53/53 54/54/54 50/50/50
f 54/54/54 51/51/51 50/50/50
f 54/54/54 55/55/55 51/51/51
f 55/55/55 52/52/52 51/51/51
f 55/55/55 56/56/56 52/52/52
f 58/58/58 59/59/59 57/57/57
f 62/62/62 61/61/61 60/60/60
f 67/67/67 64/64/64 63/63/63
f 67/67/67 68/68/68 64/64/64
f 68/68/68 65/65/65 64/64/64
f 68/68/68 69/69/69 65/65/65
f 69/69/69 66/66/66 65/65/65
f 69/69/69 70/70/70 66/66/66
f 72/72/72 73/73/73 71/71/71
f 76/76/76 75/75/75 74/74/74
f 80/80/80 78/78/78 77/77/77
f 80/80/80 79/79/79 78/78/78
f 84/84/84 82/82/82 81/81/81
f 84/84/84 83/83/83 82/82/82
f 88/88/88 86/86/86 85/85/85
f 88/88/88 87/87/87 86/86/86
f 92/92/92 90/90/90 89/89/89
f 92/92/92 91/91/91 90/90/90
f 96/96/96 94/94/94 93/93/93
f 96/96/96 95/95/95 94/94/94
f 100/100/100 98/98/98 97/97/97
f 100/100/100 99/99/99 98/98/98
f 104/104/104 102/102/102 101/101/101
f 104/104/104 103/103/103 102/102/102
f 108/108/108 106/106/106 105/105/105
f 108/108/108 107/107/107 106/106/106
f 112/112/112 110/110/110 109/109/109
f 112/112/112 111/111/111 110/110/110
f 116/116/116 114/114/114 113/113/113
f 116/116/116 115/115/115 114/114/114
f 120/120/120 118/118/118 117/117/117
f 120/120/120 119/119/119 118/118/118
f 124/124/124 122/122/122 121/121/121
f 124/124/124 123/123/123 122/122/122
f 128/128/128 126/126/126 125/125/125
f 128/128/128 127/127/127 126/126/126
f 132/132/132 130/130/130 129/129/129
f 132/132/132 131/131/131 130/130/130
f 136/136/136 134/134/134 133/133/133
f 136/136/136 135/135/135 134/134/134
f 140/140/140 138/138/138 137/137/137
f 140/140/140 139/139/139 138/138/138
f 144/144/144 142/142/142 141/141/141
f 144/144/144 143/143/143 142/142/142
f 148/148/148 146/146/146 145/145/145
f 148/148/148 147/147/147 146/146/146
f 152/152/152 150/150/150 149/149/149
f 152/152/152 151/151/151 150/150/150
f 156/156/156 154/154/154 153/153/153
f 156/156/156 155/155/155 154/154/154
f 160/160/160 158/158/158 157/157/157
f 160/160/160 159/159/159 158/158/158
f 164/164/164 162/162/162 161/161/161
f 164/164/164 163/163/163 162/162/162
f 168/168/168 166/166/166 165/165/165
f 168/168/168 167/167/167 166/166/166
f 172/172/172 170/170/170 169/169/169
f 172/172/172 171/171/171 170/170/170
f 176/176/176 174/174/174 173/173/173
f 176/176/176 175/175/175 174/174/174
f 180/180/180 178/178/178 177/177/177
f 180/180/180 179/179/179 178/178/178
f 184/184/184 182/182/182 181/181/181
f 184/184/184 183/183/183 182/182/182
f 188/188/188 186/186/186 185/185/185
f 188/188/188 187/187/187 186/186/186
f 192/192/192 190/190/190 189/189/189
f 192/192/192 191/191/191 190/190/190
f 196/196/196 194/194/194 193/193/193
f 196/196/196 195/195/195 194/194/194
f 200/200/200 198/198/198 197/197/197
f 200/200/200 199/199/199 198/198/198
f 204/204/204 202/202/202 201/201/201
f 204/204/204 203/203/203 202/202/202
f 208/208/208 206/206/206 205/205/205
f 208/208/208 207/207/207 206/206/206
f 212/212/212 210/210/210 209/209/209
f 212/212/212 211/211/211 210/210/210
f 216/216/216 214/214/214 213/213/213
f 216/216/216 215/215/215 214/214/214
f 220/220/220 218/218/218 217/217/217
f 220/220/220 219/219/219 218/218/218
